<svg xmlns="http://www.w3.org/2000/svg" width="256" height="256" viewBox="0 0 256 256">
  <title>Square button (pressed)</title>
  <defs>
    <radialGradient id="square-pressed-halo" gradientUnits="userSpaceOnUse" cx="128" cy="128" r="124"><stop offset="0" stop-color="#F48BD0" stop-opacity="0.55"/><stop offset="0.76" stop-color="#F48BD0" stop-opacity="0.45"/><stop offset="1" stop-color="#F48BD0" stop-opacity="0"/></radialGradient>
    <radialGradient id="square-pressed-body" gradientUnits="userSpaceOnUse" cx="128" cy="93.7" r="142.1"><stop offset="0" stop-color="#F48BD0" stop-opacity="0.5"/><stop offset="0.55" stop-color="#1A2233" stop-opacity="0.62"/><stop offset="1" stop-color="#0B0E14" stop-opacity="0.78"/></radialGradient>
    <linearGradient id="square-pressed-rim" gradientUnits="userSpaceOnUse" x1="0" y1="30" x2="0" y2="226"><stop offset="0" stop-color="#FFFFFF" stop-opacity="0.95"/><stop offset="0.45" stop-color="#F48BD0" stop-opacity="0.75"/><stop offset="1" stop-color="#F48BD0" stop-opacity="0.55"/></linearGradient>
    <linearGradient id="square-pressed-sheen" gradientUnits="userSpaceOnUse" x1="0" y1="30" x2="0" y2="128"><stop offset="0" stop-color="#FFFFFF" stop-opacity="0.14"/><stop offset="1" stop-color="#FFFFFF" stop-opacity="0"/></linearGradient>
  </defs>
  <g id="background" opacity="1">
    <circle cx="128" cy="128" r="124" fill="url(#square-pressed-halo)"/>
    <g transform="translate(128 128) scale(0.955) translate(-128 -128)">
    <circle cx="128" cy="128" r="98" fill="url(#square-pressed-body)"/>
    <circle cx="128" cy="128" r="88" fill="none" stroke="#FFFFFF" stroke-opacity="0.07" stroke-width="1.5"/>
    <ellipse cx="128" cy="83.9" rx="68.6" ry="41.16" fill="url(#square-pressed-sheen)"/>
    <circle cx="128" cy="128" r="96.5" fill="none" stroke="url(#square-pressed-rim)" stroke-width="3"/>
    </g>
  </g>
  <g id="symbol" opacity="1">
    <g transform="translate(128 128) scale(0.955) translate(-128 -128)">
    <path d="M 98 93 H 158 A 5 5 0 0 1 163 98 V 158 A 5 5 0 0 1 158 163 H 98 A 5 5 0 0 1 93 158 V 98 A 5 5 0 0 1 98 93 Z" fill="none" stroke="#F48BD0" stroke-opacity="0.07" stroke-width="35.2" stroke-linecap="round" stroke-linejoin="round"/>
    <path d="M 98 93 H 158 A 5 5 0 0 1 163 98 V 158 A 5 5 0 0 1 158 163 H 98 A 5 5 0 0 1 93 158 V 98 A 5 5 0 0 1 98 93 Z" fill="none" stroke="#F48BD0" stroke-opacity="0.1" stroke-width="28.6" stroke-linecap="round" stroke-linejoin="round"/>
    <path d="M 98 93 H 158 A 5 5 0 0 1 163 98 V 158 A 5 5 0 0 1 158 163 H 98 A 5 5 0 0 1 93 158 V 98 A 5 5 0 0 1 98 93 Z" fill="none" stroke="#F48BD0" stroke-opacity="0.14" stroke-width="23.1" stroke-linecap="round" stroke-linejoin="round"/>
    <path d="M 98 93 H 158 A 5 5 0 0 1 163 98 V 158 A 5 5 0 0 1 158 163 H 98 A 5 5 0 0 1 93 158 V 98 A 5 5 0 0 1 98 93 Z" fill="none" stroke="#F48BD0" stroke-opacity="0.22" stroke-width="17.6" stroke-linecap="round" stroke-linejoin="round"/>
    <path d="M 98 93 H 158 A 5 5 0 0 1 163 98 V 158 A 5 5 0 0 1 158 163 H 98 A 5 5 0 0 1 93 158 V 98 A 5 5 0 0 1 98 93 Z" fill="none" stroke="#FFFFFF" stroke-width="11" stroke-linecap="round" stroke-linejoin="round"/>
    </g>
  </g>
</svg>
